<?xml version="1.0" encoding="UTF-8"?>
<svg xmlns="http://www.w3.org/2000/svg" viewBox="-8 -3 885.76 246" width="885.76" height="246">
<title>Dauletbay Amantaev — V2 Uzluksiz</title>
<rect id="fon" x="-8" y="-3" width="885.76" height="246" fill="#15171C"/><g id="ikonka" transform="translate(-2,-3)">
<path d="M71.71,160 L120,63.42 L148.29,120 L30,120 V30 H130 A90,90 0 0 1 130,210 H30" stroke-linejoin="miter" fill="none" stroke="#FFFFFF" stroke-width="12" stroke-miterlimit="10"/>
<circle cx="71.71" cy="160" r="12" fill="#16C784"/>
<circle cx="30" cy="210" r="12" fill="#16C784"/>
</g>
<g id="yozuv"><path id="ism" d="M267.32 90V120H272.51V90ZM277.02 120Q281.6 120 285.08 118.14Q288.56 116.27 290.5 112.91Q292.45 109.54 292.45 105Q292.45 100.45 290.5 97.09Q288.56 93.73 285.08 91.86Q281.6 90 277.02 90H270.46V94.77H276.91Q279.12 94.77 281.01 95.42Q282.91 96.06 284.3 97.34Q285.7 98.62 286.47 100.54Q287.25 102.46 287.25 105Q287.25 107.54 286.47 109.46Q285.7 111.38 284.3 112.66Q282.91 113.94 281.01 114.58Q279.12 115.23 276.91 115.23H270.46V120ZM306.56 112.29H322.41L321.45 108.02H307.52ZM314.4 98.49 319.18 109.62 319.27 110.87 323.35 120H329.08L314.4 88.34L299.72 120H305.45L309.61 110.6L309.69 109.49ZM339.15 90V110.14Q339.15 112.62 339.94 114.58Q340.74 116.55 342.21 117.92Q343.68 119.28 345.69 120.02Q347.7 120.75 350.1 120.75Q352.5 120.75 354.51 120.02Q356.52 119.28 357.99 117.92Q359.46 116.55 360.26 114.58Q361.05 112.62 361.05 110.14V90H355.96V109.93Q355.96 112.69 354.48 114.39Q352.99 116.09 350.1 116.09Q347.21 116.09 345.72 114.39Q344.24 112.69 344.24 109.93V90ZM374.34 90V120H391.32V115.45H379.42V90ZM404.95 120H420.07V115.55H404.95ZM404.95 94.45H420.07V90H404.95ZM404.95 106.12H419.22V101.73H404.95ZM401.81 90V120H406.79V90ZM430.14 94.66H438.06V120H443.15V94.66H451.08V90H430.14ZM465.48 104.52H470.65Q473.51 104.52 475.66 103.71Q477.81 102.9 479.04 101.33Q480.26 99.76 480.26 97.55Q480.26 94.98 479.04 93.32Q477.81 91.65 475.66 90.82Q473.51 90 470.65 90H461.59V120H471.18Q474.36 120 476.79 119.07Q479.21 118.15 480.59 116.23Q481.97 114.32 481.97 111.35Q481.97 109.21 481.11 107.66Q480.25 106.11 478.74 105.12Q477.24 104.13 475.3 103.66Q473.37 103.18 471.18 103.18H465.48V105.97H470.86Q472.16 105.97 473.23 106.27Q474.31 106.56 475.11 107.17Q475.91 107.77 476.34 108.69Q476.77 109.61 476.77 110.82Q476.77 112.5 476.01 113.6Q475.24 114.71 473.91 115.26Q472.57 115.82 470.86 115.82H466.68V94.18H470.32Q472.44 94.18 473.75 95.2Q475.06 96.21 475.06 98.11Q475.06 99.36 474.46 100.24Q473.86 101.12 472.79 101.58Q471.72 102.04 470.32 102.04H465.48ZM497.19 112.29H513.04L512.08 108.02H498.15ZM505.03 98.49 509.81 109.62 509.9 110.87 513.98 120H519.71L505.03 88.34L490.35 120H496.08L500.24 110.6L500.31 109.49ZM543.52 90 536.53 102.84 529.56 90H523.78L533.98 107.4V120H539.12V107.35L549.31 90ZM582.94 112.29H598.8L597.84 108.02H583.91ZM590.79 98.49 595.56 109.62 595.66 110.87 599.73 120H605.46L590.79 88.34L576.11 120H581.84L586 110.6L586.07 109.49ZM621.34 101.73 630.48 117.21 639.62 101.73 641.68 120H646.93L642.8 88.5L630.48 108.85L618.16 88.5L614.04 120H619.29ZM662.36 112.29H678.21L677.25 108.02H663.32ZM670.2 98.49 674.98 109.62 675.07 110.87 679.15 120H684.88L670.2 88.34L655.52 120H661.25L665.41 110.6L665.49 109.49ZM717.08 90V110.14L695.16 88.5V120H700.15V99.86L722.06 121.5V90ZM732.58 94.66H740.51V120H745.6V94.66H753.52V90H732.58ZM763.37 112.29H779.23L778.26 108.02H764.34ZM771.21 98.49 775.99 109.62 776.09 110.87 780.16 120H785.89L771.21 88.34L756.54 120H762.27L766.42 110.6L766.5 109.49ZM799.32 120H814.45V115.55H799.32ZM799.32 94.45H814.45V90H799.32ZM799.32 106.12H813.59V101.73H799.32ZM796.18 90V120H801.16V90ZM838.97 111.09 830.13 90H824.29L838.97 121.66L853.65 90H847.81Z" fill="#FFFFFF"/><path id="shior" d="M265.14 140V150H266.36V140ZM280.79 140V147.44L273.21 139.5V150H274.43V142.56L282 150.5V140ZM287.86 141.14H290.43V150H291.64V141.14H294.21V140H287.86ZM300.74 150H305.79V148.86H300.74ZM300.74 141.14H305.79V140H300.74ZM300.74 145.14H305.5V144H300.74ZM300.07 140V150H301.29V140ZM314.29 145.07 317.71 150H319.21L315.64 145.07ZM312.5 140V150H313.71V140ZM313.17 141.07H315.21Q315.86 141.07 316.35 141.3Q316.84 141.53 317.12 141.96Q317.4 142.39 317.4 143Q317.4 143.61 317.12 144.04Q316.84 144.47 316.35 144.7Q315.86 144.93 315.21 144.93H313.17V146H315.21Q316.19 146 316.95 145.64Q317.71 145.27 318.16 144.59Q318.61 143.91 318.61 143Q318.61 142.07 318.16 141.4Q317.71 140.73 316.95 140.36Q316.19 140 315.21 140H313.17ZM332.64 140V147.44L325.07 139.5V150H326.29V142.56L333.86 150.5V140ZM341.67 147H346.96L346.53 145.86H342.1ZM344.29 142.26 346 146.29 346.11 146.57 347.57 150H348.93L344.29 139.5L339.64 150H341L342.49 146.49L342.6 146.23ZM352.71 141.14H355.29V150H356.5V141.14H359.07V140H352.71ZM364.93 140V150H366.14V140ZM373.71 145Q373.71 143.87 374.21 142.99Q374.7 142.1 375.56 141.59Q376.41 141.07 377.5 141.07Q378.6 141.07 379.45 141.59Q380.3 142.1 380.79 142.99Q381.29 143.87 381.29 145Q381.29 146.13 380.79 147.01Q380.3 147.9 379.45 148.41Q378.6 148.93 377.5 148.93Q376.41 148.93 375.56 148.41Q374.7 147.9 374.21 147.01Q373.71 146.13 373.71 145ZM372.43 145Q372.43 146.09 372.81 147.03Q373.19 147.97 373.87 148.66Q374.56 149.36 375.49 149.75Q376.41 150.14 377.5 150.14Q378.6 150.14 379.52 149.75Q380.44 149.36 381.13 148.66Q381.81 147.97 382.19 147.03Q382.57 146.09 382.57 145Q382.57 143.9 382.19 142.96Q381.81 142.03 381.13 141.34Q380.44 140.64 379.52 140.25Q378.6 139.86 377.5 139.86Q376.41 139.86 375.49 140.25Q374.56 140.64 373.87 141.34Q373.19 142.03 372.81 142.96Q372.43 143.9 372.43 145ZM396.43 140V147.44L388.86 139.5V150H390.07V142.56L397.64 150.5V140ZM405.46 147H410.74L410.31 145.86H405.89ZM408.07 142.26 409.79 146.29 409.9 146.57 411.36 150H412.71L408.07 139.5L403.43 150H404.79L406.27 146.49L406.39 146.23ZM418.5 140V150H423.64V148.86H419.71V140ZM438.36 140V150H443.5V148.86H439.57V140ZM450.74 147H456.03L455.6 145.86H451.17ZM453.36 142.26 455.07 146.29 455.19 146.57 456.64 150H458L453.36 139.5L448.71 150H450.07L451.56 146.49L451.67 146.23ZM471.26 147.36 468.29 139.5 465.37 147.36 462.71 140H461.36L465.29 150.5L468.29 142.73L471.29 150.5L475.21 140H473.86ZM490.14 146.57Q490.14 146.89 490.38 147.12Q490.61 147.36 490.93 147.36Q491.26 147.36 491.49 147.12Q491.71 146.89 491.71 146.57Q491.71 146.24 491.49 146.01Q491.26 145.79 490.93 145.79Q490.61 145.79 490.38 146.01Q490.14 146.24 490.14 146.57ZM508.36 145Q508.36 143.83 508.88 142.95Q509.4 142.07 510.24 141.57Q511.09 141.07 512.07 141.07Q512.79 141.07 513.38 141.26Q513.97 141.44 514.46 141.78Q514.94 142.11 515.29 142.56V140.96Q514.66 140.4 513.91 140.13Q513.17 139.86 512.07 139.86Q511.03 139.86 510.12 140.24Q509.21 140.61 508.53 141.31Q507.84 142 507.46 142.94Q507.07 143.89 507.07 145Q507.07 146.11 507.46 147.06Q507.84 148 508.53 148.69Q509.21 149.39 510.12 149.76Q511.03 150.14 512.07 150.14Q513.17 150.14 513.91 149.87Q514.66 149.6 515.29 149.04V147.44Q514.94 147.89 514.46 148.22Q513.97 148.56 513.38 148.74Q512.79 148.93 512.07 148.93Q511.09 148.93 510.24 148.43Q509.4 147.93 508.88 147.04Q508.36 146.16 508.36 145ZM527.01 140 524.43 144.63 521.86 140H520.5L523.83 145.7V150H525.04V145.69L528.37 140ZM535.11 144.71H536.73Q537.63 144.71 538.29 144.46Q538.96 144.2 539.33 143.7Q539.7 143.2 539.7 142.5Q539.7 141.64 539.33 141.09Q538.96 140.54 538.29 140.27Q537.63 140 536.73 140H534.16V150H536.87Q537.84 150 538.61 149.68Q539.37 149.36 539.82 148.71Q540.27 148.06 540.27 147.07Q540.27 146.39 540.01 145.89Q539.76 145.39 539.29 145.06Q538.83 144.74 538.21 144.59Q537.6 144.43 536.87 144.43H535.11V145.1H536.87Q537.36 145.1 537.76 145.22Q538.16 145.34 538.45 145.59Q538.74 145.83 538.9 146.19Q539.06 146.54 539.06 147Q539.06 147.61 538.78 148.04Q538.5 148.47 538.01 148.7Q537.51 148.93 536.87 148.93H535.37V141.07H536.73Q537.49 141.07 537.99 141.46Q538.49 141.86 538.49 142.57Q538.49 143.04 538.26 143.37Q538.03 143.7 537.63 143.87Q537.23 144.04 536.73 144.04H535.11ZM547.37 150H552.41V148.86H547.37ZM547.37 141.14H552.41V140H547.37ZM547.37 145.14H552.13V144H547.37ZM546.7 140V150H547.91V140ZM560.91 145.07 564.34 150H565.84L562.27 145.07ZM559.13 140V150H560.34V140ZM559.8 141.07H561.84Q562.49 141.07 562.98 141.3Q563.47 141.53 563.75 141.96Q564.03 142.39 564.03 143Q564.03 143.61 563.75 144.04Q563.47 144.47 562.98 144.7Q562.49 144.93 561.84 144.93H559.8V146H561.84Q562.81 146 563.58 145.64Q564.34 145.27 564.79 144.59Q565.24 143.91 565.24 143Q565.24 142.07 564.79 141.4Q564.34 140.73 563.58 140.36Q562.81 140 561.84 140H559.8ZM572.07 146.97 571.1 147.63Q571.43 148.29 571.95 148.86Q572.47 149.44 573.16 149.79Q573.86 150.14 574.67 150.14Q575.27 150.14 575.82 149.94Q576.37 149.74 576.81 149.37Q577.24 149 577.49 148.47Q577.74 147.94 577.74 147.29Q577.74 146.6 577.5 146.11Q577.26 145.61 576.88 145.26Q576.5 144.91 576.06 144.69Q575.61 144.46 575.21 144.31Q574.34 144.01 573.84 143.71Q573.33 143.4 573.11 143.05Q572.9 142.7 572.9 142.29Q572.9 141.8 573.27 141.41Q573.64 141.01 574.46 141.01Q575.04 141.01 575.45 141.24Q575.86 141.47 576.14 141.83Q576.43 142.19 576.61 142.56L577.66 141.96Q577.41 141.43 576.99 140.95Q576.56 140.47 575.95 140.16Q575.34 139.86 574.53 139.86Q573.69 139.86 573.03 140.19Q572.37 140.53 572 141.11Q571.63 141.7 571.63 142.44Q571.63 143.13 571.89 143.6Q572.16 144.07 572.57 144.39Q572.99 144.71 573.44 144.92Q573.9 145.13 574.27 145.26Q574.84 145.46 575.35 145.71Q575.86 145.96 576.17 146.36Q576.49 146.76 576.49 147.43Q576.49 148.11 576 148.56Q575.51 149 574.71 149Q574.11 149 573.64 148.74Q573.17 148.49 572.79 148.03Q572.41 147.57 572.07 146.97ZM584.77 150H589.81V148.86H584.77ZM584.77 141.14H589.81V140H584.77ZM584.77 145.14H589.53V144H584.77ZM584.1 140V150H585.31V140ZM597.24 145Q597.24 143.83 597.76 142.95Q598.29 142.07 599.13 141.57Q599.97 141.07 600.96 141.07Q601.67 141.07 602.26 141.26Q602.86 141.44 603.34 141.78Q603.83 142.11 604.17 142.56V140.96Q603.54 140.4 602.8 140.13Q602.06 139.86 600.96 139.86Q599.91 139.86 599.01 140.24Q598.1 140.61 597.41 141.31Q596.73 142 596.34 142.94Q595.96 143.89 595.96 145Q595.96 146.11 596.34 147.06Q596.73 148 597.41 148.69Q598.1 149.39 599.01 149.76Q599.91 150.14 600.96 150.14Q602.06 150.14 602.8 149.87Q603.54 149.6 604.17 149.04V147.44Q603.83 147.89 603.34 148.22Q602.86 148.56 602.26 148.74Q601.67 148.93 600.96 148.93Q599.97 148.93 599.13 148.43Q598.29 147.93 597.76 147.04Q597.24 146.16 597.24 145ZM610.81 140V146.71Q610.81 147.46 611.05 148.09Q611.29 148.71 611.74 149.17Q612.19 149.63 612.81 149.89Q613.44 150.14 614.21 150.14Q614.99 150.14 615.61 149.89Q616.24 149.63 616.69 149.17Q617.14 148.71 617.38 148.09Q617.61 147.46 617.61 146.71V140H616.4V146.71Q616.4 147.74 615.84 148.37Q615.29 149 614.21 149Q613.14 149 612.59 148.37Q612.03 147.74 612.03 146.71V140ZM626.19 145.07 629.61 150H631.11L627.54 145.07ZM624.4 140V150H625.61V140ZM625.07 141.07H627.11Q627.76 141.07 628.25 141.3Q628.74 141.53 629.02 141.96Q629.3 142.39 629.3 143Q629.3 143.61 629.02 144.04Q628.74 144.47 628.25 144.7Q627.76 144.93 627.11 144.93H625.07V146H627.11Q628.09 146 628.85 145.64Q629.61 145.27 630.06 144.59Q630.51 143.91 630.51 143Q630.51 142.07 630.06 141.4Q629.61 140.73 628.85 140.36Q628.09 140 627.11 140H625.07ZM636.97 140V150H638.19V140ZM644.04 141.14H646.61V150H647.83V141.14H650.4V140H644.04ZM662.13 140 659.54 144.63 656.97 140H655.61L658.94 145.7V150H660.16V145.69L663.49 140Z" fill="#FFFFFF"/></g>
</svg>
