<?xml version="1.0" encoding="UTF-8"?>
<svg xmlns="http://www.w3.org/2000/svg" version="1.1" width="427.177" height="334.82" viewBox="0 0 427.177 334.82">
<title>Shukrona Residence — logotip</title>
<rect id="Fon" x="0" y="0" width="427.177" height="334.82" fill="#1B6A77"/>
<g id="Belgi" fill="#FFFFFF">
<path id="Belgi-bino-1" d="M213.589 50L256.532 92.943L233.077 116.398L190.133 73.455Z"/>
<path id="Belgi-bino-2" d="M259.733 96.145L283.189 119.6L240.245 162.543L216.79 139.088Z"/>
<path id="Belgi-bino-3" d="M194.101 122.802L237.044 165.745L213.589 189.2L170.645 146.257Z"/>
<path id="Belgi-bino-4" d="M186.932 76.657L210.387 100.112L167.444 143.055L143.989 119.6Z"/>
<path id="Belgi-hovuz" d="M213.589 107.156L226.033 119.6L213.589 132.044L201.144 119.6Z"/>
</g>
<g id="SHUKRONA" fill="#FFFFFF">
<path d="M53.303 248.903L50 251.137C50.745 252.627 51.708 254.027 52.89 255.339C54.072 256.65 55.448 257.702 57.019 258.496C58.589 259.289 60.297 259.686 62.143 259.686C63.503 259.686 64.806 259.459 66.053 259.006C67.3 258.552 68.417 257.905 69.404 257.063C70.392 256.221 71.169 255.201 71.736 254.003C72.302 252.805 72.586 251.461 72.586 249.971C72.586 248.417 72.31 247.081 71.76 245.964C71.21 244.847 70.505 243.892 69.647 243.099C68.789 242.305 67.858 241.65 66.854 241.131C65.85 240.613 64.895 240.192 63.989 239.869C62.013 239.189 60.451 238.5 59.301 237.804C58.152 237.108 57.334 236.363 56.849 235.57C56.363 234.777 56.12 233.91 56.12 232.971C56.12 231.87 56.541 230.875 57.383 229.984C58.225 229.094 59.569 228.649 61.414 228.649C62.742 228.649 63.867 228.908 64.79 229.426C65.713 229.944 66.498 230.608 67.146 231.417C67.793 232.227 68.328 233.052 68.749 233.894L72.294 231.854C71.744 230.656 70.983 229.515 70.011 228.43C69.04 227.345 67.866 226.455 66.49 225.759C65.114 225.062 63.503 224.714 61.657 224.714C59.747 224.714 58.047 225.095 56.557 225.856C55.068 226.617 53.902 227.661 53.06 228.989C52.218 230.316 51.797 231.822 51.797 233.506C51.797 235.06 52.097 236.371 52.696 237.44C53.295 238.509 54.064 239.407 55.003 240.136C55.942 240.864 56.93 241.463 57.966 241.933C59.002 242.402 59.941 242.783 60.783 243.074C62.078 243.528 63.3 244.038 64.45 244.604C65.6 245.171 66.53 245.908 67.243 246.814C67.955 247.721 68.311 248.935 68.311 250.457C68.311 252.011 67.761 253.29 66.66 254.294C65.559 255.298 64.102 255.8 62.289 255.8C60.929 255.8 59.714 255.509 58.646 254.926C57.577 254.343 56.614 253.533 55.756 252.497C54.898 251.461 54.08 250.263 53.303 248.903Z"/>
<path d="M91.626 242.686L114.94 242.686L114.94 238.8L91.626 238.8ZM112.171 225.2L112.171 259.2L116.3 259.2L116.3 225.2ZM89.343 225.2L89.343 259.2L93.471 259.2L93.471 225.2Z"/>
<path d="M134.514 225.2L134.514 248.029C134.514 249.712 134.781 251.267 135.316 252.691C135.85 254.116 136.627 255.347 137.647 256.383C138.667 257.419 139.89 258.229 141.314 258.811C142.739 259.394 144.326 259.686 146.074 259.686C147.823 259.686 149.41 259.394 150.834 258.811C152.259 258.229 153.481 257.419 154.501 256.383C155.521 255.347 156.299 254.116 156.833 252.691C157.367 251.267 157.634 249.712 157.634 248.029L157.634 225.2L153.506 225.2L153.506 248.029C153.506 250.36 152.874 252.238 151.611 253.663C150.349 255.088 148.503 255.8 146.074 255.8C143.646 255.8 141.8 255.088 140.537 253.663C139.274 252.238 138.643 250.36 138.643 248.029L138.643 225.2Z"/>
<path d="M175.849 225.2L175.849 259.2L179.977 259.2L179.977 225.2ZM193.334 225.2L178.714 241.229L194.063 259.2L199.163 259.2L183.717 241.131L198.434 225.2Z"/>
<path d="M220.049 242.443L231.706 259.2L236.806 259.2L224.663 242.443ZM213.977 225.2L213.977 259.2L218.106 259.2L218.106 225.2ZM216.26 228.843L223.206 228.843C224.663 228.843 225.95 229.102 227.067 229.62C228.184 230.138 229.059 230.883 229.69 231.854C230.321 232.826 230.637 234.008 230.637 235.4C230.637 236.792 230.321 237.974 229.69 238.946C229.059 239.917 228.184 240.662 227.067 241.18C225.95 241.698 224.663 241.957 223.206 241.957L216.26 241.957L216.26 245.6L223.206 245.6C225.408 245.6 227.375 245.187 229.107 244.361C230.84 243.536 232.216 242.354 233.236 240.816C234.256 239.278 234.766 237.472 234.766 235.4C234.766 233.295 234.256 231.482 233.236 229.96C232.216 228.438 230.84 227.264 229.107 226.439C227.375 225.613 225.408 225.2 223.206 225.2L216.26 225.2Z"/>
<path d="M254.291 242.2C254.291 239.642 254.85 237.359 255.967 235.351C257.084 233.344 258.614 231.757 260.557 230.591C262.5 229.426 264.702 228.843 267.163 228.843C269.656 228.843 271.866 229.426 273.793 230.591C275.72 231.757 277.241 233.344 278.359 235.351C279.476 237.359 280.034 239.642 280.034 242.2C280.034 244.758 279.476 247.041 278.359 249.049C277.241 251.056 275.72 252.643 273.793 253.809C271.866 254.974 269.656 255.557 267.163 255.557C264.702 255.557 262.5 254.974 260.557 253.809C258.614 252.643 257.084 251.056 255.967 249.049C254.85 247.041 254.291 244.758 254.291 242.2ZM249.92 242.2C249.92 244.661 250.349 246.96 251.207 249.097C252.065 251.234 253.271 253.088 254.826 254.659C256.38 256.229 258.21 257.46 260.314 258.35C262.419 259.24 264.702 259.686 267.163 259.686C269.656 259.686 271.947 259.24 274.036 258.35C276.124 257.46 277.946 256.229 279.5 254.659C281.054 253.088 282.26 251.234 283.119 249.097C283.977 246.96 284.406 244.661 284.406 242.2C284.406 239.707 283.977 237.4 283.119 235.279C282.26 233.158 281.054 231.312 279.5 229.741C277.946 228.171 276.124 226.94 274.036 226.05C271.947 225.16 269.656 224.714 267.163 224.714C264.702 224.714 262.419 225.16 260.314 226.05C258.21 226.94 256.38 228.171 254.826 229.741C253.271 231.312 252.065 233.158 251.207 235.279C250.349 237.4 249.92 239.707 249.92 242.2Z"/>
<path d="M326.663 225.2L326.663 250.506L300.92 223.5L300.92 259.2L305.049 259.2L305.049 233.894L330.791 260.9L330.791 225.2Z"/>
<path d="M352.503 249L370.474 249L369.017 245.114L353.96 245.114ZM361.391 232.874L367.22 246.571L367.609 247.543L372.563 259.2L377.177 259.2L361.391 223.5L345.606 259.2L350.22 259.2L355.271 247.251L355.66 246.377Z"/>
</g>
<g id="RESIDENCE" fill="#FFFFFF">
<path d="M133.661 284.7L133.661 274.2L137.756 274.2C139.116 274.2 140.186 274.522 140.966 275.168C141.746 275.812 142.136 276.71 142.136 277.86C142.136 278.62 141.961 279.272 141.611 279.817C141.261 280.362 140.761 280.78 140.111 281.07C139.461 281.36 138.676 281.505 137.756 281.505L134.486 281.505L135.161 280.815L135.161 284.7ZM140.681 284.7L138.011 280.89L139.616 280.89L142.316 284.7ZM135.161 280.965L134.486 280.23L137.711 280.23C138.671 280.23 139.399 280.022 139.894 279.607C140.389 279.192 140.636 278.61 140.636 277.86C140.636 277.11 140.389 276.53 139.894 276.12C139.399 275.71 138.671 275.505 137.711 275.505L134.486 275.505L135.161 274.755Z"/>
<path d="M153.566 284.7L153.566 274.2L160.976 274.2L160.976 275.505L155.066 275.505L155.066 283.395L161.186 283.395L161.186 284.7ZM154.931 280.005L154.931 278.73L160.331 278.73L160.331 280.005Z"/>
<path d="M175.676 284.82C174.876 284.82 174.111 284.697 173.381 284.452C172.651 284.207 172.076 283.89 171.656 283.5L172.211 282.33C172.611 282.68 173.121 282.97 173.741 283.2C174.361 283.43 175.006 283.545 175.676 283.545C176.286 283.545 176.781 283.475 177.161 283.335C177.541 283.195 177.821 283.002 178.001 282.757C178.181 282.512 178.271 282.235 178.271 281.925C178.271 281.565 178.154 281.275 177.919 281.055C177.684 280.835 177.379 280.658 177.004 280.522C176.629 280.387 176.216 280.27 175.766 280.17C175.316 280.07 174.864 279.952 174.409 279.817C173.954 279.683 173.539 279.51 173.164 279.3C172.789 279.09 172.486 278.808 172.256 278.452C172.026 278.097 171.911 277.64 171.911 277.08C171.911 276.54 172.054 276.043 172.339 275.587C172.624 275.132 173.064 274.767 173.659 274.492C174.254 274.217 175.011 274.08 175.931 274.08C176.541 274.08 177.146 274.16 177.746 274.32C178.346 274.48 178.866 274.71 179.306 275.01L178.811 276.21C178.361 275.91 177.886 275.692 177.386 275.558C176.886 275.423 176.401 275.355 175.931 275.355C175.341 275.355 174.856 275.43 174.476 275.58C174.096 275.73 173.819 275.93 173.644 276.18C173.469 276.43 173.381 276.71 173.381 277.02C173.381 277.39 173.499 277.685 173.734 277.905C173.969 278.125 174.274 278.3 174.649 278.43C175.024 278.56 175.436 278.678 175.886 278.783C176.336 278.887 176.789 279.005 177.244 279.135C177.699 279.265 178.114 279.435 178.489 279.645C178.864 279.855 179.166 280.135 179.396 280.485C179.626 280.835 179.741 281.285 179.741 281.835C179.741 282.365 179.596 282.857 179.306 283.312C179.016 283.767 178.569 284.132 177.964 284.408C177.359 284.683 176.596 284.82 175.676 284.82Z"/>
<path d="M190.931 284.7L190.931 274.2L192.431 274.2L192.431 284.7Z"/>
<path d="M204.581 284.7L204.581 274.2L209.006 274.2C210.126 274.2 211.114 274.42 211.969 274.86C212.824 275.3 213.489 275.915 213.964 276.705C214.439 277.495 214.676 278.41 214.676 279.45C214.676 280.49 214.439 281.405 213.964 282.195C213.489 282.985 212.824 283.6 211.969 284.04C211.114 284.48 210.126 284.7 209.006 284.7ZM206.081 283.395L208.916 283.395C209.786 283.395 210.539 283.23 211.174 282.9C211.809 282.57 212.301 282.107 212.651 281.512C213.001 280.918 213.176 280.23 213.176 279.45C213.176 278.66 213.001 277.97 212.651 277.38C212.301 276.79 211.809 276.33 211.174 276C210.539 275.67 209.786 275.505 208.916 275.505L206.081 275.505Z"/>
<path d="M225.971 284.7L225.971 274.2L233.381 274.2L233.381 275.505L227.471 275.505L227.471 283.395L233.591 283.395L233.591 284.7ZM227.336 280.005L227.336 278.73L232.736 278.73L232.736 280.005Z"/>
<path d="M245.021 284.7L245.021 274.2L246.251 274.2L253.196 282.825L252.551 282.825L252.551 274.2L254.051 274.2L254.051 284.7L252.821 284.7L245.876 276.075L246.521 276.075L246.521 284.7Z"/>
<path d="M270.896 284.82C270.096 284.82 269.359 284.688 268.684 284.423C268.009 284.158 267.424 283.783 266.929 283.298C266.434 282.812 266.046 282.245 265.766 281.595C265.486 280.945 265.346 280.23 265.346 279.45C265.346 278.67 265.486 277.955 265.766 277.305C266.046 276.655 266.436 276.087 266.936 275.602C267.436 275.117 268.024 274.742 268.699 274.477C269.374 274.212 270.111 274.08 270.911 274.08C271.721 274.08 272.469 274.217 273.154 274.492C273.839 274.767 274.421 275.175 274.901 275.715L273.926 276.66C273.526 276.24 273.076 275.928 272.576 275.722C272.076 275.517 271.541 275.415 270.971 275.415C270.381 275.415 269.834 275.515 269.329 275.715C268.824 275.915 268.386 276.195 268.016 276.555C267.646 276.915 267.359 277.342 267.154 277.837C266.949 278.332 266.846 278.87 266.846 279.45C266.846 280.03 266.949 280.567 267.154 281.062C267.359 281.558 267.646 281.985 268.016 282.345C268.386 282.705 268.824 282.985 269.329 283.185C269.834 283.385 270.381 283.485 270.971 283.485C271.541 283.485 272.076 283.382 272.576 283.178C273.076 282.972 273.526 282.655 273.926 282.225L274.901 283.17C274.421 283.71 273.839 284.12 273.154 284.4C272.469 284.68 271.716 284.82 270.896 284.82Z"/>
<path d="M285.896 284.7L285.896 274.2L293.306 274.2L293.306 275.505L287.396 275.505L287.396 283.395L293.516 283.395L293.516 284.7ZM287.261 280.005L287.261 278.73L292.661 278.73L292.661 280.005Z"/>
</g>
</svg>
