<?xml version="1.0" encoding="UTF-8"?>
<svg xmlns="http://www.w3.org/2000/svg" version="1.1" width="339.791" height="234.82" viewBox="0 0 339.791 234.82">
<title>Shukrona Residence — logotip</title>
<g id="Belgi" fill="#1B6A77">
<path id="Belgi-ravoq-1" d="M106.623 139.2L106.623 58.211C106.623 26.195 147.75 6.644 169.895 0C192.041 6.644 233.168 26.195 233.168 58.211L233.168 139.2L223.677 139.2L223.677 60.109C223.677 32.269 188.719 15.138 169.895 9.491C151.072 15.138 116.114 32.269 116.114 60.109L116.114 139.2Z"/>
<path id="Belgi-ravoq-2" d="M123.706 139.2L123.706 61.628C123.706 37.128 153.729 21.933 169.895 17.084C186.062 21.933 216.084 37.128 216.084 61.628L216.084 139.2L206.594 139.2L206.594 63.526C206.594 43.203 182.74 30.428 169.895 26.575C157.051 30.428 133.197 43.203 133.197 63.526L133.197 139.2Z"/>
<path id="Belgi-ravoq-3" d="M140.79 139.2L140.79 65.044C140.79 48.062 159.708 37.223 169.895 34.167C180.082 37.223 199.001 48.062 199.001 65.044L199.001 139.2L189.51 139.2L189.51 66.943C189.51 54.136 176.76 45.718 169.895 43.658C163.03 45.718 150.281 54.136 150.281 66.943L150.281 139.2Z"/>
<path id="Belgi-eshik" d="M157.874 139.2L157.874 68.461C157.874 58.995 165.688 52.513 169.895 51.251C174.103 52.513 181.917 58.995 181.917 68.461L181.917 139.2Z"/>
</g>
<g id="SHUKRONA" fill="#1B6A77">
<path d="M5.013 181.021C5.013 182.435 5.376 183.659 6.101 184.693C6.827 185.726 7.76 186.66 8.903 187.494C10.045 188.329 11.251 189.145 12.52 189.942C13.899 190.777 15.213 191.665 16.464 192.608C17.716 193.551 18.749 194.63 19.565 195.845C20.381 197.06 20.789 198.538 20.789 200.278C20.789 202.164 20.3 203.823 19.32 205.256C18.341 206.689 16.99 207.813 15.268 208.629C13.545 209.445 11.523 209.853 9.202 209.853C8.223 209.853 7.198 209.762 6.128 209.581C5.059 209.399 4.061 209.146 3.136 208.819C2.212 208.493 1.459 208.148 0.879 207.786C0.734 207.677 0.616 207.55 0.525 207.405C0.435 207.26 0.371 207.042 0.335 206.752L0.008 198.538C-0.028 198.356 0.054 198.257 0.253 198.238C0.453 198.22 0.571 198.284 0.607 198.429C1.042 199.517 1.559 200.668 2.157 201.883C2.756 203.098 3.454 204.213 4.252 205.229C5.049 206.244 5.965 207.069 6.999 207.704C8.032 208.339 9.22 208.656 10.562 208.656C11.505 208.656 12.393 208.493 13.228 208.166C14.062 207.84 14.751 207.269 15.295 206.453C15.839 205.637 16.111 204.522 16.111 203.107C16.111 201.403 15.721 199.943 14.941 198.728C14.161 197.513 13.173 196.452 11.976 195.546C10.78 194.639 9.528 193.787 8.223 192.989C6.953 192.155 5.739 191.302 4.578 190.432C3.417 189.562 2.465 188.555 1.722 187.413C0.979 186.27 0.607 184.883 0.607 183.251C0.607 181.257 1.151 179.625 2.239 178.355C3.327 177.086 4.714 176.143 6.4 175.526C8.087 174.91 9.819 174.602 11.596 174.602C12.792 174.602 14.007 174.71 15.24 174.928C16.473 175.146 17.525 175.454 18.396 175.853C18.722 175.962 18.94 176.107 19.048 176.288C19.157 176.469 19.212 176.669 19.212 176.886L19.32 184.23C19.32 184.375 19.239 184.466 19.076 184.502C18.912 184.539 18.795 184.502 18.722 184.394C18.541 183.85 18.269 183.097 17.906 182.136C17.543 181.175 17.036 180.205 16.383 179.226C15.73 178.246 14.914 177.412 13.935 176.723C12.956 176.034 11.759 175.69 10.344 175.69C9.256 175.69 8.313 175.907 7.516 176.342C6.718 176.778 6.101 177.385 5.666 178.165C5.231 178.945 5.013 179.897 5.013 181.021Z"/>
<path d="M60.284 179.715C60.284 178.663 60.175 177.866 59.957 177.322C59.74 176.778 59.304 176.397 58.652 176.179C57.999 175.962 57.001 175.853 55.66 175.853C55.551 175.853 55.496 175.744 55.496 175.526C55.496 175.309 55.551 175.2 55.66 175.2C56.566 175.2 57.609 175.227 58.788 175.282C59.966 175.336 61.335 175.363 62.895 175.363C64.164 175.363 65.415 175.336 66.648 175.282C67.881 175.227 68.951 175.2 69.858 175.2C69.967 175.2 70.021 175.309 70.021 175.526C70.021 175.744 69.967 175.853 69.858 175.853C68.589 175.853 67.637 175.953 67.002 176.152C66.367 176.351 65.941 176.714 65.724 177.24C65.506 177.766 65.397 178.555 65.397 179.606L65.397 204.794C65.397 205.845 65.506 206.643 65.724 207.187C65.941 207.731 66.367 208.094 67.002 208.275C67.637 208.457 68.589 208.547 69.858 208.547C69.967 208.547 70.021 208.656 70.021 208.874C70.021 209.091 69.967 209.2 69.858 209.2C68.951 209.2 67.881 209.182 66.648 209.146C65.415 209.109 64.164 209.091 62.895 209.091C61.335 209.091 59.966 209.109 58.788 209.146C57.609 209.182 56.566 209.2 55.66 209.2C55.551 209.2 55.496 209.091 55.496 208.874C55.496 208.656 55.551 208.547 55.66 208.547C57.001 208.547 57.999 208.457 58.652 208.275C59.304 208.094 59.74 207.731 59.957 207.187C60.175 206.643 60.284 205.845 60.284 204.794ZM38.796 192.227L38.796 190.813L62.623 190.813L62.623 192.227ZM36.402 204.794L36.402 179.606C36.402 178.555 36.293 177.766 36.076 177.24C35.858 176.714 35.441 176.351 34.824 176.152C34.208 175.953 33.265 175.853 31.996 175.853C31.923 175.853 31.887 175.744 31.887 175.526C31.887 175.309 31.923 175.2 31.996 175.2C32.939 175.2 33.99 175.227 35.151 175.282C36.311 175.336 37.526 175.363 38.796 175.363C40.355 175.363 41.733 175.336 42.93 175.282C44.127 175.227 45.197 175.2 46.14 175.2C46.212 175.2 46.248 175.309 46.248 175.526C46.248 175.744 46.212 175.853 46.14 175.853C44.834 175.853 43.855 175.962 43.202 176.179C42.549 176.397 42.114 176.778 41.896 177.322C41.679 177.866 41.57 178.663 41.57 179.715L41.57 204.794C41.57 205.845 41.679 206.643 41.896 207.187C42.114 207.731 42.558 208.094 43.229 208.275C43.9 208.457 44.87 208.547 46.14 208.547C46.212 208.547 46.248 208.656 46.248 208.874C46.248 209.091 46.212 209.2 46.14 209.2C45.16 209.2 44.081 209.182 42.903 209.146C41.724 209.109 40.355 209.091 38.796 209.091C37.526 209.091 36.293 209.109 35.096 209.146C33.9 209.182 32.848 209.2 31.941 209.2C31.869 209.2 31.832 209.091 31.832 208.874C31.832 208.656 31.869 208.547 31.941 208.547C33.211 208.547 34.153 208.457 34.77 208.275C35.387 208.094 35.813 207.731 36.048 207.187C36.284 206.643 36.402 205.845 36.402 204.794Z"/>
<path d="M109.244 181.837C109.244 179.951 108.817 178.482 107.965 177.43C107.113 176.379 105.889 175.853 104.293 175.853C104.221 175.853 104.184 175.744 104.184 175.526C104.184 175.309 104.221 175.2 104.293 175.2C105.2 175.2 106.116 175.227 107.04 175.282C107.965 175.336 108.972 175.363 110.06 175.363C111.003 175.363 111.936 175.336 112.861 175.282C113.786 175.227 114.629 175.2 115.391 175.2C115.463 175.2 115.5 175.309 115.5 175.526C115.5 175.744 115.463 175.853 115.391 175.853C113.94 175.853 112.834 176.379 112.072 177.43C111.311 178.482 110.93 179.951 110.93 181.837L110.93 197.069C110.93 199.716 110.377 202.001 109.271 203.923C108.165 205.845 106.614 207.332 104.62 208.384C102.625 209.436 100.286 209.962 97.602 209.962C94.955 209.962 92.597 209.445 90.53 208.411C88.463 207.378 86.858 205.9 85.716 203.978C84.573 202.055 84.002 199.771 84.002 197.123L84.002 179.606C84.002 178.555 83.902 177.766 83.703 177.24C83.503 176.714 83.104 176.351 82.506 176.152C81.908 175.953 81.028 175.853 79.868 175.853C79.759 175.853 79.704 175.744 79.704 175.526C79.704 175.309 79.759 175.2 79.868 175.2C80.774 175.2 81.799 175.227 82.941 175.282C84.084 175.336 85.289 175.363 86.559 175.363C87.901 175.363 89.134 175.336 90.258 175.282C91.382 175.227 92.398 175.2 93.304 175.2C93.413 175.2 93.468 175.309 93.468 175.526C93.468 175.744 93.413 175.853 93.304 175.853C92.108 175.853 91.219 175.962 90.639 176.179C90.059 176.397 89.669 176.778 89.469 177.322C89.27 177.866 89.17 178.663 89.17 179.715L89.17 195.219C89.17 199.644 90.086 202.89 91.917 204.957C93.749 207.024 96.242 208.058 99.397 208.058C102.48 208.058 104.892 207.106 106.632 205.202C108.373 203.298 109.244 200.605 109.244 197.123Z"/>
<path d="M128.773 204.794L128.773 179.606C128.773 178.555 128.683 177.766 128.501 177.24C128.32 176.714 127.93 176.351 127.332 176.152C126.733 175.953 125.836 175.853 124.639 175.853C124.566 175.853 124.53 175.744 124.53 175.526C124.53 175.309 124.566 175.2 124.639 175.2C125.582 175.2 126.615 175.227 127.74 175.282C128.864 175.336 130.061 175.363 131.33 175.363C132.708 175.363 133.959 175.336 135.084 175.282C136.208 175.227 137.205 175.2 138.076 175.2C138.184 175.2 138.239 175.309 138.239 175.526C138.239 175.744 138.184 175.853 138.076 175.853C136.915 175.853 136.045 175.962 135.464 176.179C134.884 176.397 134.485 176.778 134.268 177.322C134.05 177.866 133.941 178.663 133.941 179.715L133.941 204.794C133.941 205.845 134.041 206.643 134.24 207.187C134.44 207.731 134.83 208.094 135.41 208.275C135.99 208.457 136.879 208.547 138.076 208.547C138.221 208.547 138.293 208.656 138.293 208.874C138.293 209.091 138.221 209.2 138.076 209.2C137.169 209.2 136.163 209.182 135.056 209.146C133.95 209.109 132.708 209.091 131.33 209.091C130.061 209.091 128.846 209.109 127.685 209.146C126.525 209.182 125.491 209.2 124.584 209.2C124.512 209.2 124.476 209.091 124.476 208.874C124.476 208.656 124.512 208.547 124.584 208.547C125.781 208.547 126.679 208.457 127.277 208.275C127.876 208.094 128.275 207.731 128.474 207.187C128.673 206.643 128.773 205.845 128.773 204.794ZM142.917 201.312L135.029 190.976L138.837 187.494L146.997 198.32C148.484 200.351 149.753 202.01 150.805 203.298C151.857 204.585 152.727 205.601 153.416 206.344C154.105 207.087 154.722 207.613 155.266 207.922C155.81 208.23 156.336 208.411 156.844 208.466C157.351 208.52 157.913 208.547 158.53 208.547C158.639 208.547 158.693 208.656 158.693 208.874C158.693 209.091 158.639 209.2 158.53 209.2C156.934 209.2 155.647 209.2 154.668 209.2C153.688 209.2 152.945 209.2 152.437 209.2C151.966 209.2 151.567 209.218 151.24 209.254C150.914 209.291 150.624 209.309 150.37 209.309C149.862 209.309 149.436 209.218 149.092 209.037C148.747 208.855 148.348 208.493 147.895 207.949C147.441 207.405 146.825 206.607 146.045 205.555C145.265 204.503 144.223 203.089 142.917 201.312ZM130.623 194.621L144.658 180.368C146 179.026 146.526 177.938 146.236 177.104C145.945 176.27 144.876 175.853 143.026 175.853C142.953 175.853 142.917 175.744 142.917 175.526C142.917 175.309 142.953 175.2 143.026 175.2C144.005 175.2 144.984 175.227 145.964 175.282C146.943 175.336 148.23 175.363 149.826 175.363C151.458 175.363 152.745 175.336 153.688 175.282C154.631 175.227 155.556 175.2 156.463 175.2C156.572 175.2 156.626 175.309 156.626 175.526C156.626 175.744 156.572 175.853 156.463 175.853C154.903 175.853 153.181 176.27 151.295 177.104C149.409 177.938 147.65 179.135 146.018 180.694L132.092 194.73Z"/>
<path d="M194.162 209.2C193.618 209.2 192.711 208.511 191.442 207.133C190.173 205.755 188.64 203.769 186.845 201.176C185.05 198.583 183.046 195.491 180.834 191.901L185.186 190.595C188.124 194.983 190.635 198.492 192.72 201.122C194.806 203.751 196.655 205.646 198.269 206.806C199.883 207.967 201.433 208.547 202.92 208.547C202.993 208.547 203.029 208.656 203.029 208.874C203.029 209.091 202.993 209.2 202.92 209.2C200.636 209.2 198.777 209.2 197.344 209.2C195.912 209.2 194.851 209.2 194.162 209.2ZM181.813 175.037C184.968 175.037 187.407 175.662 189.13 176.914C190.853 178.165 191.714 179.878 191.714 182.054C191.714 184.122 191.125 185.971 189.946 187.603C188.767 189.235 187.244 190.505 185.376 191.411C183.509 192.318 181.505 192.771 179.365 192.771C178.93 192.771 178.459 192.762 177.951 192.744C177.443 192.726 176.99 192.699 176.591 192.662L176.591 204.794C176.591 205.845 176.681 206.643 176.863 207.187C177.044 207.731 177.434 208.094 178.032 208.275C178.631 208.457 179.51 208.547 180.671 208.547C180.78 208.547 180.834 208.656 180.834 208.874C180.834 209.091 180.78 209.2 180.671 209.2C179.764 209.2 178.749 209.182 177.624 209.146C176.5 209.109 175.267 209.091 173.925 209.091C172.656 209.091 171.441 209.109 170.28 209.146C169.12 209.182 168.086 209.2 167.18 209.2C167.071 209.2 167.016 209.091 167.016 208.874C167.016 208.656 167.071 208.547 167.18 208.547C168.376 208.547 169.265 208.457 169.845 208.275C170.425 208.094 170.824 207.731 171.042 207.187C171.26 206.643 171.368 205.845 171.368 204.794L171.368 179.606C171.368 178.555 171.269 177.766 171.069 177.24C170.87 176.714 170.48 176.351 169.9 176.152C169.319 175.953 168.431 175.853 167.234 175.853C167.161 175.853 167.125 175.744 167.125 175.526C167.125 175.309 167.161 175.2 167.234 175.2C168.141 175.2 169.165 175.227 170.308 175.282C171.45 175.336 172.656 175.363 173.925 175.363C175.086 175.363 176.391 175.309 177.842 175.2C179.293 175.091 180.616 175.037 181.813 175.037ZM186.328 183.958C186.328 181.855 186.084 180.232 185.594 179.09C185.104 177.947 184.424 177.158 183.554 176.723C182.684 176.288 181.668 176.07 180.508 176.07C179.093 176.07 178.087 176.333 177.488 176.859C176.89 177.385 176.591 178.337 176.591 179.715L176.591 191.194C177.099 191.266 177.643 191.321 178.223 191.357C178.803 191.393 179.311 191.411 179.746 191.411C182.176 191.411 183.88 190.804 184.86 189.589C185.839 188.374 186.328 186.497 186.328 183.958Z"/>
<path d="M226.258 209.853C223.647 209.853 221.28 209.39 219.159 208.466C217.037 207.541 215.224 206.262 213.719 204.63C212.214 202.998 211.053 201.122 210.237 199C209.421 196.878 209.013 194.621 209.013 192.227C209.013 189.29 209.584 186.715 210.727 184.502C211.869 182.29 213.383 180.45 215.269 178.981C217.155 177.512 219.222 176.415 221.471 175.69C223.719 174.964 225.95 174.602 228.162 174.602C230.846 174.602 233.248 175.082 235.37 176.043C237.492 177.004 239.296 178.301 240.783 179.933C242.27 181.565 243.403 183.414 244.183 185.482C244.963 187.549 245.352 189.67 245.352 191.846C245.352 194.385 244.845 196.742 243.829 198.918C242.814 201.094 241.427 202.998 239.668 204.63C237.909 206.262 235.878 207.541 233.575 208.466C231.272 209.39 228.833 209.853 226.258 209.853ZM228.108 208.547C230.284 208.547 232.233 207.967 233.956 206.806C235.678 205.646 237.038 203.932 238.036 201.666C239.033 199.399 239.532 196.652 239.532 193.424C239.532 190.051 238.988 187.059 237.9 184.448C236.812 181.837 235.252 179.779 233.221 178.274C231.19 176.769 228.76 176.016 225.932 176.016C222.414 176.016 219.685 177.276 217.744 179.797C215.804 182.317 214.834 185.808 214.834 190.269C214.834 192.88 215.16 195.301 215.813 197.531C216.466 199.762 217.382 201.711 218.56 203.379C219.739 205.047 221.135 206.326 222.749 207.214C224.363 208.103 226.149 208.547 228.108 208.547Z"/>
<path d="M261.346 202.618L261.346 176.451L262.815 176.56L262.815 202.618C262.815 204.54 263.196 206.009 263.957 207.024C264.719 208.039 265.807 208.547 267.221 208.547C267.33 208.547 267.384 208.656 267.384 208.874C267.384 209.091 267.33 209.2 267.221 209.2C266.46 209.2 265.671 209.182 264.855 209.146C264.039 209.109 263.141 209.091 262.162 209.091C261.11 209.091 260.104 209.109 259.143 209.146C258.182 209.182 257.284 209.2 256.45 209.2C256.341 209.2 256.287 209.091 256.287 208.874C256.287 208.656 256.341 208.547 256.45 208.547C258.046 208.547 259.261 208.039 260.095 207.024C260.929 206.009 261.346 204.54 261.346 202.618ZM288.981 209.962C288.981 210.07 288.891 210.134 288.709 210.152C288.528 210.17 288.401 210.161 288.328 210.125L262.162 179.661C260.856 178.174 259.741 177.167 258.816 176.642C257.892 176.116 256.994 175.853 256.124 175.853C256.015 175.853 255.96 175.744 255.96 175.526C255.96 175.309 256.015 175.2 256.124 175.2C256.813 175.2 257.52 175.218 258.245 175.254C258.971 175.291 259.641 175.309 260.258 175.309C261.346 175.309 262.334 175.291 263.223 175.254C264.111 175.218 264.791 175.2 265.263 175.2C265.734 175.2 266.079 175.409 266.296 175.826C266.514 176.243 267.058 176.977 267.928 178.029L288.546 202.291ZM288.981 181.837L288.981 209.962L287.512 208.33L287.512 181.837C287.512 179.915 287.141 178.437 286.397 177.403C285.654 176.37 284.557 175.853 283.106 175.853C283.033 175.853 282.997 175.744 282.997 175.526C282.997 175.309 283.033 175.2 283.106 175.2C283.868 175.2 284.665 175.227 285.5 175.282C286.334 175.336 287.24 175.363 288.22 175.363C289.163 175.363 290.087 175.336 290.994 175.282C291.901 175.227 292.735 175.2 293.496 175.2C293.605 175.2 293.66 175.309 293.66 175.526C293.66 175.744 293.605 175.853 293.496 175.853C292.046 175.853 290.931 176.37 290.151 177.403C289.371 178.437 288.981 179.915 288.981 181.837Z"/>
<path d="M310.632 195.872L311.34 194.512L326.572 194.512L326.952 195.872ZM339.573 208.547C339.718 208.547 339.791 208.656 339.791 208.874C339.791 209.091 339.718 209.2 339.573 209.2C338.485 209.2 337.37 209.164 336.228 209.091C335.085 209.019 333.988 208.982 332.936 208.982C331.74 208.982 330.697 209.019 329.808 209.091C328.92 209.164 327.932 209.2 326.844 209.2C326.699 209.2 326.626 209.091 326.626 208.874C326.626 208.656 326.699 208.547 326.844 208.547C328.476 208.547 329.455 208.257 329.781 207.677C330.108 207.097 329.836 205.954 328.965 204.25L317.596 181.13L319.826 177.485L309.055 201.747C308.112 203.959 308.085 205.646 308.973 206.806C309.862 207.967 311.376 208.547 313.516 208.547C313.697 208.547 313.788 208.656 313.788 208.874C313.788 209.091 313.697 209.2 313.516 209.2C312.428 209.2 311.43 209.164 310.524 209.091C309.617 209.019 308.475 208.982 307.096 208.982C305.718 208.982 304.621 209.019 303.805 209.091C302.989 209.164 301.983 209.2 300.786 209.2C300.641 209.2 300.568 209.091 300.568 208.874C300.568 208.656 300.641 208.547 300.786 208.547C301.765 208.547 302.608 208.348 303.316 207.949C304.023 207.55 304.721 206.815 305.41 205.746C306.099 204.676 306.861 203.18 307.695 201.258L319.391 174.874C319.463 174.765 319.627 174.71 319.88 174.71C320.134 174.71 320.279 174.765 320.316 174.874L333.644 201.747C334.478 203.488 335.221 204.857 335.874 205.854C336.527 206.852 337.143 207.55 337.724 207.949C338.304 208.348 338.92 208.547 339.573 208.547Z"/>
</g>
<g id="RESIDENCE" fill="#1B6A77">
<path d="M89.968 234.7L89.968 224.2L94.063 224.2C95.423 224.2 96.493 224.522 97.273 225.167C98.053 225.812 98.443 226.71 98.443 227.86C98.443 228.62 98.268 229.272 97.918 229.817C97.568 230.362 97.068 230.78 96.418 231.07C95.768 231.36 94.983 231.505 94.063 231.505L90.793 231.505L91.468 230.815L91.468 234.7ZM96.988 234.7L94.318 230.89L95.923 230.89L98.623 234.7ZM91.468 230.965L90.793 230.23L94.018 230.23C94.978 230.23 95.705 230.022 96.2 229.607C96.695 229.192 96.943 228.61 96.943 227.86C96.943 227.11 96.695 226.53 96.2 226.12C95.705 225.71 94.978 225.505 94.018 225.505L90.793 225.505L91.468 224.755Z"/>
<path d="M109.873 234.7L109.873 224.2L117.283 224.2L117.283 225.505L111.373 225.505L111.373 233.395L117.493 233.395L117.493 234.7ZM111.238 230.005L111.238 228.73L116.638 228.73L116.638 230.005Z"/>
<path d="M131.983 234.82C131.183 234.82 130.418 234.697 129.688 234.452C128.958 234.207 128.383 233.89 127.963 233.5L128.518 232.33C128.918 232.68 129.428 232.97 130.048 233.2C130.668 233.43 131.313 233.545 131.983 233.545C132.593 233.545 133.088 233.475 133.468 233.335C133.848 233.195 134.128 233.002 134.308 232.757C134.488 232.512 134.578 232.235 134.578 231.925C134.578 231.565 134.46 231.275 134.225 231.055C133.99 230.835 133.685 230.657 133.31 230.522C132.935 230.387 132.523 230.27 132.073 230.17C131.623 230.07 131.17 229.952 130.715 229.817C130.26 229.682 129.845 229.51 129.47 229.3C129.095 229.09 128.793 228.807 128.563 228.452C128.333 228.097 128.218 227.64 128.218 227.08C128.218 226.54 128.36 226.042 128.645 225.587C128.93 225.132 129.37 224.767 129.965 224.492C130.56 224.217 131.318 224.08 132.238 224.08C132.848 224.08 133.453 224.16 134.053 224.32C134.653 224.48 135.173 224.71 135.613 225.01L135.118 226.21C134.668 225.91 134.193 225.692 133.693 225.557C133.193 225.422 132.708 225.355 132.238 225.355C131.648 225.355 131.163 225.43 130.783 225.58C130.403 225.73 130.125 225.93 129.95 226.18C129.775 226.43 129.688 226.71 129.688 227.02C129.688 227.39 129.805 227.685 130.04 227.905C130.275 228.125 130.58 228.3 130.955 228.43C131.33 228.56 131.743 228.677 132.193 228.782C132.643 228.887 133.095 229.005 133.55 229.135C134.005 229.265 134.42 229.435 134.795 229.645C135.17 229.855 135.473 230.135 135.703 230.485C135.933 230.835 136.048 231.285 136.048 231.835C136.048 232.365 135.903 232.857 135.613 233.312C135.323 233.767 134.875 234.132 134.27 234.407C133.665 234.682 132.903 234.82 131.983 234.82Z"/>
<path d="M147.238 234.7L147.238 224.2L148.738 224.2L148.738 234.7Z"/>
<path d="M160.888 234.7L160.888 224.2L165.313 224.2C166.433 224.2 167.42 224.42 168.275 224.86C169.13 225.3 169.795 225.915 170.27 226.705C170.745 227.495 170.983 228.41 170.983 229.45C170.983 230.49 170.745 231.405 170.27 232.195C169.795 232.985 169.13 233.6 168.275 234.04C167.42 234.48 166.433 234.7 165.313 234.7ZM162.388 233.395L165.223 233.395C166.093 233.395 166.845 233.23 167.48 232.9C168.115 232.57 168.608 232.107 168.958 231.512C169.308 230.917 169.483 230.23 169.483 229.45C169.483 228.66 169.308 227.97 168.958 227.38C168.608 226.79 168.115 226.33 167.48 226C166.845 225.67 166.093 225.505 165.223 225.505L162.388 225.505Z"/>
<path d="M182.278 234.7L182.278 224.2L189.688 224.2L189.688 225.505L183.778 225.505L183.778 233.395L189.898 233.395L189.898 234.7ZM183.643 230.005L183.643 228.73L189.043 228.73L189.043 230.005Z"/>
<path d="M201.328 234.7L201.328 224.2L202.558 224.2L209.503 232.825L208.858 232.825L208.858 224.2L210.358 224.2L210.358 234.7L209.128 234.7L202.183 226.075L202.828 226.075L202.828 234.7Z"/>
<path d="M227.203 234.82C226.403 234.82 225.665 234.688 224.99 234.422C224.315 234.157 223.73 233.782 223.235 233.297C222.74 232.812 222.353 232.245 222.073 231.595C221.793 230.945 221.653 230.23 221.653 229.45C221.653 228.67 221.793 227.955 222.073 227.305C222.353 226.655 222.743 226.087 223.243 225.602C223.743 225.117 224.33 224.742 225.005 224.477C225.68 224.212 226.418 224.08 227.218 224.08C228.028 224.08 228.775 224.217 229.46 224.492C230.145 224.767 230.728 225.175 231.208 225.715L230.233 226.66C229.833 226.24 229.383 225.927 228.883 225.722C228.383 225.517 227.848 225.415 227.278 225.415C226.688 225.415 226.14 225.515 225.635 225.715C225.13 225.915 224.693 226.195 224.323 226.555C223.953 226.915 223.665 227.343 223.46 227.837C223.255 228.332 223.153 228.87 223.153 229.45C223.153 230.03 223.255 230.567 223.46 231.062C223.665 231.557 223.953 231.985 224.323 232.345C224.693 232.705 225.13 232.985 225.635 233.185C226.14 233.385 226.688 233.485 227.278 233.485C227.848 233.485 228.383 233.382 228.883 233.177C229.383 232.972 229.833 232.655 230.233 232.225L231.208 233.17C230.728 233.71 230.145 234.12 229.46 234.4C228.775 234.68 228.023 234.82 227.203 234.82Z"/>
<path d="M242.203 234.7L242.203 224.2L249.613 224.2L249.613 225.505L243.703 225.505L243.703 233.395L249.823 233.395L249.823 234.7ZM243.568 230.005L243.568 228.73L248.968 228.73L248.968 230.005Z"/>
</g>
</svg>
