<?xml version="1.0" encoding="UTF-8"?>
<svg xmlns="http://www.w3.org/2000/svg" version="1.1" width="494.754" height="116" viewBox="0 0 494.754 116">
<title>Shukrona Residence — logotip</title>
<g id="Belgi" fill="#1B6A77">
<path id="Belgi-fasad" fill-rule="evenodd" d="M0 116L0 0L93.548 0L93.548 116L55.661 116L55.661 94.446C55.661 87.778 49.885 83.256 46.774 82.323C43.664 83.256 37.887 87.778 37.887 94.446L37.887 116ZM10.056 38.355L10.056 25.221C10.056 18.553 15.833 14.03 18.944 13.097C22.054 14.03 27.831 18.553 27.831 25.221L27.831 38.355ZM37.887 38.355L37.887 25.221C37.887 18.553 43.664 14.03 46.774 13.097C49.885 14.03 55.661 18.553 55.661 25.221L55.661 38.355ZM65.718 38.355L65.718 25.221C65.718 18.553 71.494 14.03 74.605 13.097C77.715 14.03 83.492 18.553 83.492 25.221L83.492 38.355ZM10.056 72.968L10.056 59.834C10.056 53.165 15.833 48.643 18.944 47.71C22.054 48.643 27.831 53.165 27.831 59.834L27.831 72.968ZM37.887 72.968L37.887 59.834C37.887 53.165 43.664 48.643 46.774 47.71C49.885 48.643 55.661 53.165 55.661 59.834L55.661 72.968ZM65.718 72.968L65.718 59.834C65.718 53.165 71.494 48.643 74.605 47.71C77.715 48.643 83.492 53.165 83.492 59.834L83.492 72.968ZM10.056 107.581L10.056 94.446C10.056 87.778 15.833 83.256 18.944 82.323C22.054 83.256 27.831 87.778 27.831 94.446L27.831 107.581ZM65.718 107.581L65.718 94.446C65.718 87.778 71.494 83.256 74.605 82.323C77.715 83.256 83.492 87.778 83.492 94.446L83.492 107.581Z"/>
</g>
<g id="SHUKRONA" fill="#1B6A77">
<path d="M139.743 62.514C136.931 62.514 134.24 62.111 131.668 61.306C129.097 60.5 127.057 59.463 125.548 58.194L127.863 53C129.303 54.131 131.086 55.074 133.211 55.829C135.337 56.583 137.514 56.96 139.743 56.96C141.628 56.96 143.154 56.754 144.32 56.343C145.486 55.931 146.343 55.374 146.891 54.671C147.44 53.969 147.714 53.171 147.714 52.28C147.714 51.183 147.32 50.3 146.531 49.631C145.743 48.963 144.723 48.431 143.471 48.037C142.22 47.643 140.831 47.274 139.306 46.931C137.78 46.589 136.254 46.186 134.728 45.723C133.203 45.26 131.814 44.66 130.563 43.923C129.311 43.186 128.291 42.2 127.503 40.966C126.714 39.731 126.32 38.154 126.32 36.234C126.32 34.28 126.843 32.489 127.888 30.86C128.934 29.231 130.528 27.929 132.671 26.951C134.814 25.974 137.531 25.486 140.823 25.486C142.983 25.486 145.126 25.76 147.251 26.309C149.377 26.857 151.228 27.646 152.806 28.674L150.697 33.869C149.086 32.909 147.423 32.197 145.708 31.734C143.994 31.271 142.348 31.04 140.771 31.04C138.92 31.04 137.42 31.263 136.271 31.709C135.123 32.154 134.283 32.737 133.751 33.457C133.22 34.177 132.954 35 132.954 35.926C132.954 37.023 133.34 37.906 134.111 38.574C134.883 39.243 135.894 39.766 137.146 40.143C138.397 40.52 139.794 40.889 141.337 41.249C142.88 41.609 144.414 42.011 145.94 42.457C147.466 42.903 148.854 43.486 150.106 44.206C151.357 44.926 152.368 45.903 153.14 47.137C153.911 48.371 154.297 49.931 154.297 51.817C154.297 53.737 153.774 55.511 152.728 57.14C151.683 58.769 150.08 60.071 147.92 61.049C145.76 62.026 143.034 62.514 139.743 62.514Z"/>
<path d="M194.463 62L194.463 26L201.148 26L201.148 62ZM169.16 62L169.16 26L175.846 26L175.846 62ZM175.28 46.571L175.28 40.863L194.977 40.863L194.977 46.571Z"/>
<path d="M234.526 62.514C229.588 62.514 225.723 61.126 222.928 58.349C220.134 55.571 218.737 51.56 218.737 46.314L218.737 26L225.423 26L225.423 46.057C225.423 49.76 226.22 52.451 227.814 54.131C229.408 55.811 231.663 56.651 234.577 56.651C237.491 56.651 239.737 55.811 241.314 54.131C242.891 52.451 243.68 49.76 243.68 46.057L243.68 26L250.263 26L250.263 46.314C250.263 51.56 248.866 55.571 246.071 58.349C243.277 61.126 239.428 62.514 234.526 62.514Z"/>
<path d="M273.817 53.514L273.457 45.594L292.331 26L299.84 26L284.154 42.663L280.451 46.726ZM267.851 62L267.851 26L274.537 26L274.537 62ZM292.948 62L279.166 45.594L283.588 40.709L300.766 62Z"/>
<path d="M313.571 62L313.571 26L328.331 26C333.131 26 336.894 27.131 339.62 29.394C342.346 31.657 343.708 34.794 343.708 38.806C343.708 41.446 343.091 43.717 341.857 45.62C340.623 47.523 338.866 48.98 336.586 49.991C334.306 51.003 331.571 51.509 328.383 51.509L317.274 51.509L320.257 48.474L320.257 62ZM337.126 62L328.023 48.937L335.171 48.937L344.326 62ZM320.257 49.194L317.274 46.006L328.074 46.006C331.023 46.006 333.243 45.371 334.734 44.103C336.226 42.834 336.971 41.069 336.971 38.806C336.971 36.509 336.226 34.743 334.734 33.509C333.243 32.274 331.023 31.657 328.074 31.657L317.274 31.657L320.257 28.366Z"/>
<path d="M376.263 62.514C373.451 62.514 370.863 62.051 368.497 61.126C366.131 60.2 364.074 58.906 362.326 57.243C360.577 55.58 359.223 53.626 358.263 51.38C357.303 49.134 356.823 46.674 356.823 44C356.823 41.326 357.303 38.866 358.263 36.62C359.223 34.374 360.577 32.42 362.326 30.757C364.074 29.094 366.131 27.8 368.497 26.874C370.863 25.949 373.434 25.486 376.211 25.486C379.023 25.486 381.603 25.949 383.951 26.874C386.3 27.8 388.348 29.094 390.097 30.757C391.846 32.42 393.2 34.374 394.16 36.62C395.12 38.866 395.6 41.326 395.6 44C395.6 46.674 395.12 49.143 394.16 51.406C393.2 53.669 391.846 55.623 390.097 57.269C388.348 58.914 386.3 60.2 383.951 61.126C381.603 62.051 379.04 62.514 376.263 62.514ZM376.211 56.651C378.028 56.651 379.708 56.343 381.251 55.726C382.794 55.109 384.131 54.226 385.263 53.077C386.394 51.929 387.277 50.591 387.911 49.066C388.546 47.54 388.863 45.851 388.863 44C388.863 42.149 388.546 40.46 387.911 38.934C387.277 37.409 386.394 36.071 385.263 34.923C384.131 33.774 382.794 32.891 381.251 32.274C379.708 31.657 378.028 31.349 376.211 31.349C374.394 31.349 372.723 31.657 371.197 32.274C369.671 32.891 368.334 33.774 367.186 34.923C366.037 36.071 365.146 37.409 364.511 38.934C363.877 40.46 363.56 42.149 363.56 44C363.56 45.817 363.877 47.497 364.511 49.04C365.146 50.583 366.028 51.929 367.16 53.077C368.291 54.226 369.628 55.109 371.171 55.726C372.714 56.343 374.394 56.651 376.211 56.651Z"/>
<path d="M410.926 62L410.926 26L416.428 26L439.006 53.72L436.28 53.72L436.28 26L442.914 26L442.914 62L437.411 62L414.834 34.28L417.56 34.28L417.56 62Z"/>
<path d="M455.72 62L471.92 26L478.503 26L494.754 62L487.76 62L473.823 29.549L476.497 29.549L462.611 62ZM463.177 53.669L464.977 48.423L484.417 48.423L486.217 53.669Z"/>
</g>
<g id="RESIDENCE" fill="#1B6A77">
<path d="M125.548 90L125.548 78L130.228 78C131.783 78 133.006 78.369 133.897 79.106C134.788 79.843 135.234 80.869 135.234 82.183C135.234 83.051 135.034 83.797 134.634 84.42C134.234 85.043 133.663 85.52 132.92 85.851C132.177 86.183 131.28 86.349 130.228 86.349L126.491 86.349L127.263 85.56L127.263 90ZM133.571 90L130.52 85.646L132.354 85.646L135.44 90ZM127.263 85.731L126.491 84.891L130.177 84.891C131.274 84.891 132.106 84.654 132.671 84.18C133.237 83.706 133.52 83.04 133.52 82.183C133.52 81.326 133.237 80.663 132.671 80.194C132.106 79.726 131.274 79.491 130.177 79.491L126.491 79.491L127.263 78.634Z"/>
<path d="M148.297 90L148.297 78L156.766 78L156.766 79.491L150.011 79.491L150.011 88.509L157.006 88.509L157.006 90ZM149.857 84.634L149.857 83.177L156.028 83.177L156.028 84.634Z"/>
<path d="M173.566 90.137C172.651 90.137 171.777 89.997 170.943 89.717C170.108 89.437 169.451 89.074 168.971 88.629L169.606 87.291C170.063 87.691 170.646 88.023 171.354 88.286C172.063 88.549 172.8 88.68 173.566 88.68C174.263 88.68 174.828 88.6 175.263 88.44C175.697 88.28 176.017 88.06 176.223 87.78C176.428 87.5 176.531 87.183 176.531 86.829C176.531 86.417 176.397 86.086 176.128 85.834C175.86 85.583 175.511 85.38 175.083 85.226C174.654 85.071 174.183 84.937 173.668 84.823C173.154 84.709 172.637 84.574 172.117 84.42C171.597 84.266 171.123 84.069 170.694 83.829C170.266 83.589 169.92 83.266 169.657 82.86C169.394 82.454 169.263 81.931 169.263 81.291C169.263 80.674 169.426 80.106 169.751 79.586C170.077 79.066 170.58 78.649 171.26 78.334C171.94 78.02 172.806 77.863 173.857 77.863C174.554 77.863 175.246 77.954 175.931 78.137C176.617 78.32 177.211 78.583 177.714 78.926L177.148 80.297C176.634 79.954 176.091 79.706 175.52 79.551C174.948 79.397 174.394 79.32 173.857 79.32C173.183 79.32 172.628 79.406 172.194 79.577C171.76 79.749 171.443 79.977 171.243 80.263C171.043 80.549 170.943 80.869 170.943 81.223C170.943 81.646 171.077 81.983 171.346 82.234C171.614 82.486 171.963 82.686 172.391 82.834C172.82 82.983 173.291 83.117 173.806 83.237C174.32 83.357 174.837 83.491 175.357 83.64C175.877 83.789 176.351 83.983 176.78 84.223C177.208 84.463 177.554 84.783 177.817 85.183C178.08 85.583 178.211 86.097 178.211 86.726C178.211 87.331 178.046 87.894 177.714 88.414C177.383 88.934 176.871 89.351 176.18 89.666C175.488 89.98 174.617 90.137 173.566 90.137Z"/>
<path d="M191 90L191 78L192.714 78L192.714 90Z"/>
<path d="M206.6 90L206.6 78L211.657 78C212.937 78 214.066 78.251 215.043 78.754C216.02 79.257 216.78 79.96 217.323 80.863C217.866 81.766 218.137 82.811 218.137 84C218.137 85.189 217.866 86.234 217.323 87.137C216.78 88.04 216.02 88.743 215.043 89.246C214.066 89.749 212.937 90 211.657 90ZM208.314 88.509L211.554 88.509C212.548 88.509 213.408 88.32 214.134 87.943C214.86 87.566 215.423 87.037 215.823 86.357C216.223 85.677 216.423 84.891 216.423 84C216.423 83.097 216.223 82.309 215.823 81.634C215.423 80.96 214.86 80.434 214.134 80.057C213.408 79.68 212.548 79.491 211.554 79.491L208.314 79.491Z"/>
<path d="M231.046 90L231.046 78L239.514 78L239.514 79.491L232.76 79.491L232.76 88.509L239.754 88.509L239.754 90ZM232.606 84.634L232.606 83.177L238.777 83.177L238.777 84.634Z"/>
<path d="M252.817 90L252.817 78L254.223 78L262.16 87.857L261.423 87.857L261.423 78L263.137 78L263.137 90L261.731 90L253.794 80.143L254.531 80.143L254.531 90Z"/>
<path d="M282.388 90.137C281.474 90.137 280.631 89.986 279.86 89.683C279.088 89.38 278.42 88.951 277.854 88.397C277.288 87.843 276.846 87.194 276.526 86.451C276.206 85.709 276.046 84.891 276.046 84C276.046 83.109 276.206 82.291 276.526 81.549C276.846 80.806 277.291 80.157 277.863 79.603C278.434 79.049 279.106 78.62 279.877 78.317C280.648 78.014 281.491 77.863 282.406 77.863C283.331 77.863 284.186 78.02 284.968 78.334C285.751 78.649 286.417 79.114 286.966 79.731L285.851 80.811C285.394 80.331 284.88 79.974 284.308 79.74C283.737 79.506 283.126 79.389 282.474 79.389C281.8 79.389 281.174 79.503 280.597 79.731C280.02 79.96 279.52 80.28 279.097 80.691C278.674 81.103 278.346 81.591 278.111 82.157C277.877 82.723 277.76 83.337 277.76 84C277.76 84.663 277.877 85.277 278.111 85.843C278.346 86.409 278.674 86.897 279.097 87.309C279.52 87.72 280.02 88.04 280.597 88.269C281.174 88.497 281.8 88.611 282.474 88.611C283.126 88.611 283.737 88.494 284.308 88.26C284.88 88.026 285.394 87.663 285.851 87.171L286.966 88.251C286.417 88.869 285.751 89.337 284.968 89.657C284.186 89.977 283.326 90.137 282.388 90.137Z"/>
<path d="M299.531 90L299.531 78L308 78L308 79.491L301.246 79.491L301.246 88.509L308.24 88.509L308.24 90ZM301.091 84.634L301.091 83.177L307.263 83.177L307.263 84.634Z"/>
</g>
</svg>
